<?xml version="1.0" encoding="utf-8"?>
<!-- Generator: Adobe Illustrator 22.1.0, SVG Export Plug-In . SVG Version: 6.00 Build 0)  -->
<svg version="1.1" id="Layer_1" xmlns="http://www.w3.org/2000/svg" xmlns:xlink="http://www.w3.org/1999/xlink" x="0px" y="0px"
	 viewBox="0 0 500 500" style="enable-background:new 0 0 500 500;" xml:space="preserve">
<style type="text/css">
	.st0{fill:#5F27CD;}
	.st1{fill:#FFFFFF;}
</style>
<g>
	<rect class="st0" width="500" height="500"/>
</g>
<g>
	<path class="st1" d="M165.6,191v123.8h-25.5V134.5h25.5V176h43c7.5,0,13.7,0.8,18.5,2.3c4.8,1.5,8.7,4,11.6,7.4
		c2.9,3.4,4.9,7.8,6,13.3c1.1,5.4,1.6,12,1.6,19.6v96.3h-25.5v-97.3c0-5.5-0.3-10-0.9-13.5c-0.6-3.5-1.6-6.2-3.1-8.1
		c-1.5-1.9-3.6-3.2-6.4-3.9c-2.8-0.7-6.4-1-10.9-1H165.6z"/>
	<path class="st1" d="M328.8,299.8c4.5,0,8.1-0.3,10.9-1c2.8-0.7,4.9-2,6.4-3.9c1.5-1.9,2.5-4.6,3.1-8.1c0.6-3.5,0.9-8,0.9-13.5
		v-55.8c0-5.5-0.3-10-0.9-13.5c-0.6-3.5-1.6-6.2-3.1-8.1c-1.5-1.9-3.6-3.2-6.4-3.9c-2.8-0.7-6.4-1-10.9-1h-33v178.8h-25.5V176h67.5
		c7.5,0,13.7,0.8,18.5,2.3c4.8,1.5,8.7,4,11.6,7.4c2.9,3.4,4.9,7.8,6,13.3c1.1,5.4,1.6,12,1.6,19.6v53.8c0,7.8-0.5,14.4-1.6,19.8
		c-1.1,5.3-3.1,9.7-6,13.1c-2.9,3.4-6.8,5.9-11.6,7.4c-4.8,1.5-11,2.3-18.5,2.3h-28.3v-15H328.8z"/>
</g>
<g>
</g>
<g>
</g>
<g>
</g>
<g>
</g>
<g>
</g>
<g>
</g>
<g>
</g>
<g>
</g>
<g>
</g>
<g>
</g>
<g>
</g>
<g>
</g>
<g>
</g>
<g>
</g>
<g>
</g>
</svg>
